<svg xmlns="http://www.w3.org/2000/svg" id="Слой_1" data-name="Слой 1" viewBox="0 0 512 512"><defs><style>.cls-1{fill:#fff;fill-rule:evenodd}</style></defs><title>pmd_logo_1</title><path d="M459.17,105H52.83a30.35,30.35,0,0,0-30.34,30.34V376.66A30.35,30.35,0,0,0,52.83,407H459.17a30.35,30.35,0,0,0,30.34-30.34V135.34A30.35,30.35,0,0,0,459.17,105Zm-185,94.4a13.93,13.93,0,0,1,9.9-4.11h90.29a14,14,0,0,1,0,28H284a14,14,0,0,1-9.9-23.91Zm-63.64,63.11L92.14,330.83a7.51,7.51,0,0,1-11.27-6.51V187.68a7.51,7.51,0,0,1,11.27-6.51l118.34,68.32A7.52,7.52,0,0,1,210.48,262.51ZM441.81,312.6a13.93,13.93,0,0,1-9.9,4.11H284a14,14,0,0,1,0-28H431.91a14,14,0,0,1,9.9,23.91Zm0-46.7a13.93,13.93,0,0,1-9.9,4.11H284a14,14,0,0,1,0-28H431.91a14,14,0,0,1,9.9,23.91Z" class="cls-1"/></svg>