<svg width="100%" height="75%" viewBox="0 0 16 12" fill="none" xmlns="http://www.w3.org/2000/svg">
<path opacity="0.8" d="M10.824 8.13515H9.96982C9.4785 8.12845 9.00989 7.92718 8.66675 7.57546C8.32362 7.22375 8.13398 6.75032 8.13941 6.25898V5.38445C8.13804 5.18844 8.21426 4.99985 8.35143 4.85983C8.4886 4.7198 8.67558 4.63971 8.87157 4.63703H12.8832V3.58963H5.76495C5.11923 5.04379 4.45824 6.55896 4.23961 7.14876C4.09903 7.49523 3.85761 7.79147 3.54664 7.99908C3.23568 8.20669 2.86952 8.31609 2.49564 8.31311V8.9385C2.7765 9.21979 3.11021 9.44276 3.47758 9.59459C3.84494 9.74643 4.2387 9.82412 4.6362 9.8232H11.0376C11.5275 9.8232 11.9975 9.62891 12.3444 9.28293C12.6914 8.93694 12.887 8.4675 12.8883 7.97753V7.84534C12.5994 8.03376 12.2621 8.13442 11.9172 8.13515H10.824ZM6.5378 6.70641C6.41183 6.70733 6.28847 6.67048 6.18364 6.60063C6.0788 6.53078 5.99729 6.43113 5.94963 6.31452C5.90196 6.19792 5.89032 6.06971 5.9162 5.94642C5.94208 5.82313 6.0043 5.71043 6.09484 5.62284C6.18537 5.53524 6.30008 5.47678 6.42415 5.45499C6.54822 5.43319 6.67598 5.44907 6.79095 5.50056C6.90592 5.55206 7.00282 5.63681 7.06917 5.7439C7.13552 5.85098 7.16826 5.97549 7.16319 6.10136C7.15666 6.26325 7.08805 6.41642 6.97161 6.52908C6.85516 6.64173 6.69981 6.70524 6.5378 6.70641Z" fill="white"/>
<path d="M13.0154 4.63705H8.87665C8.77916 4.63772 8.68276 4.65758 8.59295 4.6955C8.50314 4.73342 8.42168 4.78866 8.35322 4.85807C8.28476 4.92747 8.23064 5.00968 8.19395 5.1C8.15726 5.19032 8.13873 5.28699 8.1394 5.38447V6.259C8.13397 6.75034 8.32361 7.22378 8.66674 7.57549C9.00988 7.9272 9.47849 8.12847 9.96981 8.13517H11.9172C12.2621 8.13444 12.5994 8.03378 12.8883 7.84536L12.9391 7.81485C13.186 7.63775 13.3869 7.40406 13.5249 7.13337C13.6629 6.86267 13.734 6.56284 13.7323 6.259V5.38447C13.7351 5.19066 13.6614 5.00357 13.5272 4.86368C13.393 4.7238 13.2092 4.64238 13.0154 4.63705ZM11.1901 7.31657H10.3816C10.3379 7.32221 10.2935 7.31846 10.2514 7.30557C10.2092 7.29269 10.1703 7.27097 10.1372 7.24186C10.1041 7.21276 10.0776 7.17693 10.0594 7.13677C10.0413 7.09661 10.0319 7.05304 10.0319 7.00896C10.0319 6.96489 10.0413 6.92132 10.0594 6.88116C10.0776 6.841 10.1041 6.80517 10.1372 6.77606C10.1703 6.74695 10.2092 6.72524 10.2514 6.71235C10.2935 6.69947 10.3379 6.69572 10.3816 6.70135H11.1901C11.2338 6.69572 11.2782 6.69947 11.3204 6.71235C11.3625 6.72524 11.4014 6.74695 11.4345 6.77606C11.4676 6.80517 11.4941 6.841 11.5123 6.88116C11.5305 6.92132 11.5399 6.96489 11.5399 7.00896C11.5399 7.05304 11.5305 7.09661 11.5123 7.13677C11.4941 7.17693 11.4676 7.21276 11.4345 7.24186C11.4014 7.27097 11.3625 7.29269 11.3204 7.30557C11.2782 7.31846 11.2338 7.32221 11.1901 7.31657ZM12.6392 7.31657H12.329C12.2542 7.30694 12.1855 7.2704 12.1357 7.21378C12.0859 7.15717 12.0585 7.08436 12.0585 7.00896C12.0585 6.93357 12.0859 6.86076 12.1357 6.80414C12.1855 6.74753 12.2542 6.71099 12.329 6.70135H12.6392C12.6829 6.69572 12.7273 6.69947 12.7694 6.71235C12.8116 6.72524 12.8505 6.74695 12.8836 6.77606C12.9167 6.80517 12.9432 6.841 12.9614 6.88116C12.9795 6.92132 12.9889 6.96489 12.9889 7.00896C12.9889 7.05304 12.9795 7.09661 12.9614 7.13677C12.9432 7.17693 12.9167 7.21276 12.8836 7.24186C12.8505 7.27097 12.8116 7.29269 12.7694 7.30557C12.7273 7.31846 12.6829 7.32221 12.6392 7.31657Z" fill="white"/>
<path opacity="0.6" d="M11.1901 6.70133H10.3816C10.3379 6.6957 10.2935 6.69945 10.2514 6.71233C10.2092 6.72522 10.1703 6.74694 10.1372 6.77604C10.1041 6.80515 10.0776 6.84098 10.0594 6.88114C10.0413 6.9213 10.0319 6.96487 10.0319 7.00894C10.0319 7.05302 10.0413 7.09659 10.0594 7.13675C10.0776 7.17691 10.1041 7.21274 10.1372 7.24185C10.1703 7.27095 10.2092 7.29267 10.2514 7.30555C10.2935 7.31844 10.3379 7.32219 10.3816 7.31656H11.1901C11.2338 7.32219 11.2782 7.31844 11.3204 7.30555C11.3625 7.29267 11.4014 7.27095 11.4345 7.24185C11.4676 7.21274 11.4941 7.17691 11.5123 7.13675C11.5305 7.09659 11.5399 7.05302 11.5399 7.00894C11.5399 6.96487 11.5305 6.9213 11.5123 6.88114C11.4941 6.84098 11.4676 6.80515 11.4345 6.77604C11.4014 6.74694 11.3625 6.72522 11.3204 6.71233C11.2782 6.69945 11.2338 6.6957 11.1901 6.70133ZM12.629 6.70133H12.3188C12.2441 6.71097 12.1753 6.74751 12.1256 6.80412C12.0758 6.86074 12.0483 6.93355 12.0483 7.00894C12.0483 7.08434 12.0758 7.15715 12.1256 7.21377C12.1753 7.27038 12.2441 7.30692 12.3188 7.31656H12.629C12.6727 7.32219 12.7171 7.31844 12.7593 7.30555C12.8014 7.29267 12.8403 7.27095 12.8734 7.24185C12.9065 7.21274 12.933 7.17691 12.9512 7.13675C12.9694 7.09659 12.9788 7.05302 12.9788 7.00894C12.9788 6.96487 12.9694 6.9213 12.9512 6.88114C12.933 6.84098 12.9065 6.80515 12.8734 6.77604C12.8403 6.74694 12.8014 6.72522 12.7593 6.71233C12.7171 6.69945 12.6727 6.6957 12.629 6.70133Z" fill="white"/>
<path opacity="0.4" d="M1.13808 7.80975C1.06148 7.77479 0.9868 7.73576 0.914368 7.69281V10.6316L1.70755 11.1858L2.49564 10.6316V8.31312C1.99445 8.33091 1.50652 8.14999 1.13808 7.80975Z" fill="white"/>
<path opacity="0.6" d="M3.71592 6.81321C3.61993 7.05443 3.47556 7.27345 3.2917 7.45676C3.10784 7.64006 2.8884 7.78378 2.64689 7.87905C2.40537 7.97432 2.14691 8.01913 1.88742 8.01071C1.62794 8.00229 1.37292 7.94083 1.13809 7.8301C1.50572 8.17219 1.99374 8.35497 2.49565 8.33855C2.87084 8.33103 3.23505 8.21056 3.54072 7.99287C3.8464 7.77518 4.07933 7.47039 4.20912 7.11828C4.43792 6.53865 5.0989 5.02347 5.73446 3.55914H5.08873C5.08873 3.55914 4.20912 5.55734 3.71592 6.81321Z" fill="white"/>
<path d="M7.36148 0L7.79366 0.0355913L7.36148 0Z" fill="#EBEFF7"/>
<path d="M11.1138 2.17614C11.726 2.19186 12.3361 2.25304 12.9392 2.35918C12.5426 1.88633 10.9969 0.325392 7.79874 0.0457458C10.1122 0.599954 10.9664 1.91683 11.1138 2.17614ZM3.71591 6.81318C4.2091 5.55732 5.08872 3.58963 5.08872 3.58963C5.08872 3.58963 6.65474 2.40494 9.8783 2.20156C8.75463 0.676221 6.90896 0.167773 5.77004 0.0457458C1.83974 0.467757 0.0042416 3.45235 0.0042416 5.83188C-0.0188908 6.19442 0.0528831 6.55672 0.212484 6.88305C0.372084 7.20939 0.613998 7.48848 0.914363 7.6928C0.986795 7.73574 1.06147 7.77478 1.13808 7.80974C1.37164 7.92102 1.62546 7.98346 1.88399 7.99325C2.14252 8.00304 2.40033 7.95998 2.64164 7.86669C2.88295 7.7734 3.10269 7.63185 3.2874 7.45071C3.47212 7.26956 3.61793 7.05263 3.71591 6.81318ZM0.395746 5.36919C0.412931 4.98931 0.578758 4.6314 0.857456 4.37268C1.13615 4.11395 1.50538 3.97515 1.8855 3.98622C2.25768 4.06686 2.58316 4.29077 2.79154 4.60952C2.99992 4.92827 3.07445 5.31624 2.999 5.68952C2.98186 6.06581 2.81887 6.42063 2.54457 6.6788C2.27027 6.93696 1.90622 7.07817 1.52958 7.07249C1.34312 7.03545 1.1658 6.96195 1.00781 6.85622C0.849812 6.75048 0.714253 6.61458 0.608907 6.45633C0.503562 6.29808 0.430503 6.12058 0.393923 5.93402C0.357344 5.74746 0.357963 5.55551 0.395746 5.36919Z" fill="white"/>
<path opacity="0.4" d="M10.5952 2.17105C10.3461 2.17105 10.0868 2.17105 9.87321 2.20156C6.64965 2.40494 5.08871 3.58962 5.08871 3.58962H16C15.0982 2.93773 14.0511 2.5154 12.9493 2.35918C12.3462 2.25303 11.7361 2.19185 11.124 2.17614L10.5952 2.17105Z" fill="white"/>
<path opacity="0.8" d="M1.52959 7.07252C1.91057 7.08494 2.2811 6.94675 2.5609 6.68789C2.8407 6.42902 3.00724 6.07033 3.02442 5.68954C3.0992 5.31264 3.02123 4.92148 2.80765 4.60206C2.59407 4.28265 2.26237 4.06113 1.8855 3.98624C1.50539 3.97518 1.13616 4.11398 0.857458 4.3727C0.57876 4.63142 0.412933 4.98933 0.395748 5.36922C0.357965 5.55554 0.357346 5.74748 0.393925 5.93404C0.430505 6.1206 0.503564 6.2981 0.60891 6.45635C0.714255 6.61461 0.849814 6.7505 1.00781 6.85624C1.1658 6.96198 1.34312 7.03548 1.52959 7.07252ZM0.634719 5.42515C0.639901 5.29756 0.670458 5.17229 0.724604 5.05665C0.778751 4.94101 0.8554 4.83732 0.950075 4.75164C1.04475 4.66596 1.15555 4.60001 1.276 4.55763C1.39646 4.51526 1.52415 4.49732 1.65161 4.50486C1.89912 4.55856 2.11541 4.7078 2.25347 4.92013C2.39152 5.13245 2.44018 5.39069 2.38886 5.6387C2.37829 5.89137 2.26801 6.12956 2.08217 6.3011C1.89634 6.47264 1.65011 6.56354 1.39739 6.5539C1.14693 6.50468 0.926137 6.35833 0.783234 6.14684C0.640331 5.93534 0.586938 5.67588 0.634719 5.42515Z" fill="white"/>
<path opacity="0.6" d="M1.37196 6.55389C1.62468 6.56353 1.87091 6.47263 2.05674 6.30109C2.24257 6.12955 2.35285 5.89136 2.36343 5.63869C2.41475 5.39068 2.36609 5.13244 2.22804 4.92011C2.08998 4.70779 1.87368 4.55855 1.62618 4.50485C1.37298 4.49658 1.12676 4.58864 0.941085 4.76098C0.755408 4.93333 0.645299 5.17202 0.63471 5.42514C0.586232 5.67226 0.636169 5.92854 0.773881 6.13938C0.911593 6.35022 1.12619 6.49896 1.37196 6.55389ZM9.8732 2.20666H11.0986C10.946 1.94227 10.0817 0.630475 7.78857 0.0762672L7.36147 0H6.72083C6.40477 0.000140533 6.08899 0.0188157 5.77512 0.0559292C6.90895 0.19321 8.74953 0.660982 9.8732 2.20666Z" fill="white"/>
</svg>
