<svg width="100%" height="100%" viewBox="0 0 60 59" fill="none" xmlns="http://www.w3.org/2000/svg">
<path d="M45.5 53.5V42.5L54 48L45.5 53.5Z" fill="white"/>
<mask id="mask0" mask-type="alpha" maskUnits="userSpaceOnUse" x="0" y="0" width="60" height="59">
<path d="M38 48C38 41.9249 42.9249 37 49 37C51.2136 37 53.2744 37.6538 55 38.7789V0H0V55H40.5143C38.9436 53.0981 38 50.6593 38 48Z" fill="black"/>
<path d="M49 59C55.0751 59 60 54.0751 60 48C60 44.1384 58.0102 40.7416 55 38.7789V55H40.5143C42.5319 57.443 45.5841 59 49 59Z" fill="black"/>
</mask>
<g mask="url(#mask0)">
<path d="M28.4814 6.27539C15.7741 6.60057 15.1674 8.37451 6.65292 18.232C-0.842697 31.3504 6.75744 47.693 18.7606 48.8064L7.94126 38.6266L16.7352 45.502C6.40346 35.3364 8.05776 18.7253 20.466 11.1255L20.4849 11.2126C22.5536 20.7528 24.2772 28.702 27.9276 34.9492C29.8785 27.6612 30.653 23.8801 33.6304 17.8408C32.3271 22.2015 31.6973 24.0426 31.7227 28.1071C33.9929 21.2529 36.0437 17.1177 39.12 13.4218C44.3431 17.521 47.914 30.2057 46.1436 38.3551L47.381 37.0811C46.0486 39.586 43.97 41.8778 41.8381 43.9031L43.5969 43.4767C41.3585 45.875 40.2925 46.6745 37.4145 48.6998C46.9866 48.0705 54.3615 37.3529 52.0824 25.7836C49.8033 14.2142 40.5351 6.61424 28.4814 6.27539Z" fill="#A80E33"/>
<path d="M0.159891 16.9349L0 17.5211L5.54288 15.176C-2.34507 29.6194 4.21046 47.2608 16.8418 48.4866L9.27368 39.7993L15.7226 44.596C4.85002 33.4036 6.44893 18.4804 19.5067 10.1128C21.6925 20.6594 23.1684 26.0248 27.0215 32.924C29.0745 24.8998 30.5506 20.8127 33.6837 14.1634C32.3122 18.9646 31.8982 21.5737 31.9249 26.0486C34.3139 18.5019 35.7227 14.5551 38.9601 10.4859C46.3151 18.9601 48.2338 26.475 47.381 36.9745C48.8548 36.1938 49.5264 35.2056 50.419 32.3376C49.7261 37.8272 47.381 39.9591 42.2112 43.7432C43.6769 43.3355 44.4449 43.0392 45.7289 42.4108C43.5414 45.1265 42.0534 46.4326 39.0667 48.4866C49.1398 47.7937 55.7486 36.2284 53.3503 23.4904C50.9519 10.7524 41.1985 2.38473 28.5138 2.01166C15.1414 2.36968 9.12008 6.08161 0.159891 16.9349Z" fill="#E40813"/>
</g>
</svg>
