<svg width="87" height="87" viewBox="0 0 87 87" fill="none" xmlns="http://www.w3.org/2000/svg">
<path d="M37.6023 53.608H46.1165V52.9432C46.1676 47.5227 47.9318 45.0426 52.0994 42.4858C56.804 39.6733 59.7443 35.8381 59.7443 29.983C59.7443 21.3409 53.0199 15.9205 43.2528 15.9205C34.304 15.9205 27.0426 20.8807 26.7869 30.5966H35.8892C36.1193 25.7898 39.5966 23.4886 43.2017 23.4886C47.1136 23.4886 50.2585 26.0966 50.2585 30.1108C50.2585 33.6903 47.8807 36.1449 44.7869 38.0881C40.2614 40.9006 37.6534 43.7386 37.6023 52.9432V53.608ZM42.0767 69.5625C45.0938 69.5625 47.6761 67.0568 47.7017 63.9375C47.6761 60.8693 45.0938 58.3636 42.0767 58.3636C38.9574 58.3636 36.4261 60.8693 36.4517 63.9375C36.4261 67.0568 38.9574 69.5625 42.0767 69.5625Z" fill="#99AAB5"/>
</svg>
