<svg width="208" height="208" viewBox="0 0 208 208" fill="none" xmlns="http://www.w3.org/2000/svg">
<g filter="url(#filter0_d)">
<circle cx="104" cy="100" r="100" fill="white"/>
</g>
<g filter="url(#filter1_d)">
<path d="M149.691 32.4765H59.3977C51.7833 32.4765 45.584 38.6759 45.584 46.3576V137.459C45.584 145.141 51.7833 151.34 59.3977 151.34H135.81L132.239 138.875L140.864 146.893L149.017 154.44L163.504 167.243V46.3576C163.504 38.6759 157.305 32.4765 149.691 32.4765Z" fill="#7289DA"/>
</g>
<g filter="url(#filter2_d)">
<path fill-rule="evenodd" clip-rule="evenodd" d="M70 72C70 68.134 73.134 65 77 65H133C136.866 65 140 68.134 140 72V110C140 113.866 136.866 117 133 117H77C73.134 117 70 113.866 70 110V72ZM99.5 90.5L79 105V76L99.5 90.5ZM114.5 77H107.5C106.119 77 105 78.1193 105 79.5C105 80.8807 106.119 82 107.5 82H114.5C115.881 82 117 80.8807 117 79.5C117 78.1193 115.881 77 114.5 77ZM126.5 89C127.881 89 129 90.1193 129 91.5C129 92.8807 127.881 94 126.5 94H107.5C106.119 94 105 92.8807 105 91.5C105 90.1193 106.119 89 107.5 89H126.5ZM129 102.5C129 101.119 127.881 100 126.5 100H107.5C106.119 100 105 101.119 105 102.5C105 103.881 106.119 105 107.5 105H126.5C127.881 105 129 103.881 129 102.5Z" fill="white"/>
</g>
<defs>
<filter id="filter0_d" x="0" y="0" width="208" height="208" filterUnits="userSpaceOnUse" color-interpolation-filters="sRGB">
<feFlood flood-opacity="0" result="BackgroundImageFix"/>
<feColorMatrix in="SourceAlpha" type="matrix" values="0 0 0 0 0 0 0 0 0 0 0 0 0 0 0 0 0 0 127 0"/>
<feOffset dy="4"/>
<feGaussianBlur stdDeviation="2"/>
<feColorMatrix type="matrix" values="0 0 0 0 0 0 0 0 0 0 0 0 0 0 0 0 0 0 0.25 0"/>
<feBlend mode="normal" in2="BackgroundImageFix" result="effect1_dropShadow"/>
<feBlend mode="normal" in="SourceGraphic" in2="effect1_dropShadow" result="shape"/>
</filter>
<filter id="filter1_d" x="41.584" y="32.4765" width="125.92" height="142.766" filterUnits="userSpaceOnUse" color-interpolation-filters="sRGB">
<feFlood flood-opacity="0" result="BackgroundImageFix"/>
<feColorMatrix in="SourceAlpha" type="matrix" values="0 0 0 0 0 0 0 0 0 0 0 0 0 0 0 0 0 0 127 0"/>
<feOffset dy="4"/>
<feGaussianBlur stdDeviation="2"/>
<feColorMatrix type="matrix" values="0 0 0 0 0 0 0 0 0 0 0 0 0 0 0 0 0 0 0.25 0"/>
<feBlend mode="normal" in2="BackgroundImageFix" result="effect1_dropShadow"/>
<feBlend mode="normal" in="SourceGraphic" in2="effect1_dropShadow" result="shape"/>
</filter>
<filter id="filter2_d" x="66" y="65" width="78" height="60" filterUnits="userSpaceOnUse" color-interpolation-filters="sRGB">
<feFlood flood-opacity="0" result="BackgroundImageFix"/>
<feColorMatrix in="SourceAlpha" type="matrix" values="0 0 0 0 0 0 0 0 0 0 0 0 0 0 0 0 0 0 127 0"/>
<feOffset dy="4"/>
<feGaussianBlur stdDeviation="2"/>
<feColorMatrix type="matrix" values="0 0 0 0 0 0 0 0 0 0 0 0 0 0 0 0 0 0 0.25 0"/>
<feBlend mode="normal" in2="BackgroundImageFix" result="effect1_dropShadow"/>
<feBlend mode="normal" in="SourceGraphic" in2="effect1_dropShadow" result="shape"/>
</filter>
</defs>
</svg>
