<svg width="32" height="32" viewBox="0 0 32 32" fill="none" xmlns="http://www.w3.org/2000/svg">
<path d="M16.0016 24.9999C19.103 24.9999 21.6172 22.4383 21.6172 19.2785C21.6172 16.1187 19.103 13.5571 16.0016 13.5571C12.9002 13.5571 10.386 16.1187 10.386 19.2785C10.386 22.4383 12.9002 24.9999 16.0016 24.9999Z" fill="url(#paint0_linear)"/>
<path d="M4.16159 12.6611L7.17235 16.3145C7.40915 16.5902 7.81508 16.6247 8.08571 16.3834C12.9909 11.9028 19.0462 11.9028 23.9175 16.3834C24.1882 16.6247 24.5941 16.5902 24.8309 16.3145L27.8416 12.6611C28.0784 12.3854 28.0446 11.9718 27.774 11.7305C20.67 5.42317 11.2994 5.42317 4.19541 11.7305C3.95861 11.9718 3.92479 12.3854 4.16159 12.6611Z" fill="#7A869A"/>
<defs>
<linearGradient id="paint0_linear" x1="16.004" y1="23.0395" x2="16.004" y2="12.8883" gradientUnits="userSpaceOnUse">
<stop stop-color="#7A869A"/>
<stop offset="0.824" stop-color="#344563"/>
</linearGradient>
</defs>
</svg>
