<svg width="104" height="22" viewBox="0 0 104 22" fill="none" xmlns="http://www.w3.org/2000/svg">
<path d="M0.28 22H5.65V15.79H8.8C13.93 15.79 16.54 12.04 16.54 8.26C16.54 4.51 13.96 0.76 8.77 0.76H0.28V22ZM5.65 11.02V5.77H8.77C12.01 5.74 12.01 11.05 8.77 11.02H5.65ZM30.7209 22H37.4109L31.6209 14.71C34.2009 13.9 35.7909 11.68 35.7909 7.75C35.6709 2.77 32.2809 0.76 27.9009 0.76H19.4109V22H24.8409V15.25H25.8009L30.7209 22ZM24.8409 10.63V5.77H27.9909C31.3809 5.77 31.3809 10.63 27.9909 10.63H24.8409ZM45.7295 5.8H55.0895V0.76H40.2995V22H55.0895V16.93H45.7295V13.75H54.3395V9.1H45.7295V5.8ZM57.9655 22H63.3355V15.88L62.9755 11.59L63.1255 11.56L65.9755 18.85H69.6655L72.4555 11.56L72.6355 11.59L72.3055 15.88L72.2755 22H77.6755V0.76H72.3055L67.8055 11.14L63.3355 0.76H57.9655V22ZM85.9234 0.76H80.5534V22H85.9234V0.76ZM87.3152 0.879998C87.1952 0.969999 87.1352 3.01 87.1352 5.38V9.73L89.7152 12.04C91.1252 13.3 92.3552 14.35 92.4452 14.35C92.5052 14.35 92.5652 12.46 92.5652 10.18V5.98H94.5752C96.1952 5.98 96.6452 6.07 97.1552 6.49L97.7852 6.97V11.26C97.7852 13.6 97.6952 15.7 97.6352 15.91C97.2752 16.81 96.3452 16.99 91.6352 16.99H87.1352V19.48V22H92.1752C96.6452 22 97.3652 21.94 98.6552 21.49C100.515 20.89 102.045 19.54 102.765 17.89C103.305 16.66 103.335 16.39 103.335 11.47C103.335 6.61 103.305 6.28 102.765 5.11C102.045 3.49 100.605 2.14 98.8052 1.45C97.5752 0.91 96.9452 0.879998 92.4452 0.789999C89.7152 0.729998 87.4052 0.789999 87.3152 0.879998Z" fill="#7289DA"/>
</svg>
