<svg width="78" height="60" viewBox="0 0 78 60" fill="none" xmlns="http://www.w3.org/2000/svg">
<g filter="url(#filter0_d)">
<path fill-rule="evenodd" clip-rule="evenodd" d="M4 7C4 3.13401 7.13401 0 11 0H67C70.866 0 74 3.13401 74 7V45C74 48.866 70.866 52 67 52H11C7.13401 52 4 48.866 4 45V7ZM33.5 25.5L13 40V11L33.5 25.5ZM48.5 12H41.5C40.1193 12 39 13.1193 39 14.5C39 15.8807 40.1193 17 41.5 17H48.5C49.8807 17 51 15.8807 51 14.5C51 13.1193 49.8807 12 48.5 12ZM60.5 24C61.8807 24 63 25.1193 63 26.5C63 27.8807 61.8807 29 60.5 29H41.5C40.1193 29 39 27.8807 39 26.5C39 25.1193 40.1193 24 41.5 24H60.5ZM63 37.5C63 36.1193 61.8807 35 60.5 35H41.5C40.1193 35 39 36.1193 39 37.5C39 38.8807 40.1193 40 41.5 40H60.5C61.8807 40 63 38.8807 63 37.5Z" fill="white"/>
</g>
<defs>
<filter id="filter0_d" x="0" y="0" width="78" height="60" filterUnits="userSpaceOnUse" color-interpolation-filters="sRGB">
<feFlood flood-opacity="0" result="BackgroundImageFix"/>
<feColorMatrix in="SourceAlpha" type="matrix" values="0 0 0 0 0 0 0 0 0 0 0 0 0 0 0 0 0 0 127 0"/>
<feOffset dy="4"/>
<feGaussianBlur stdDeviation="2"/>
<feColorMatrix type="matrix" values="0 0 0 0 0 0 0 0 0 0 0 0 0 0 0 0 0 0 0.25 0"/>
<feBlend mode="normal" in2="BackgroundImageFix" result="effect1_dropShadow"/>
<feBlend mode="normal" in="SourceGraphic" in2="effect1_dropShadow" result="shape"/>
</filter>
</defs>
</svg>
